<svg xmlns="http://www.w3.org/2000/svg" viewBox="0 0 100 100">
  <defs>
    <linearGradient id="petal" x1="0" y1="0" x2="1" y2="1">
      <stop offset="0%" stop-color="#D4AF37"/>
      <stop offset="100%" stop-color="#722F37"/>
    </linearGradient>
  </defs>
  <circle cx="50" cy="45" r="28" fill="url(#petal)" opacity="0.9"/>
  <path d="M50 18 Q65 30 50 45 Q35 30 50 18Z" fill="#D4AF37" opacity="0.6"/>
  <path d="M50 18 Q65 30 50 45" fill="none" stroke="#722F37" stroke-width="0.5" opacity="0.3"/>
  <path d="M30 35 Q50 28 50 45 Q30 50 30 35Z" fill="#D4AF37" opacity="0.5"/>
  <path d="M70 35 Q50 28 50 45 Q70 50 70 35Z" fill="#D4AF37" opacity="0.5"/>
  <path d="M50 45 Q55 55 50 65 Q45 55 50 45Z" fill="#722F37"/>
  <path d="M45 60 Q50 70 55 60 Q58 72 50 78 Q42 72 45 60Z" fill="#2d5a27"/>
  <line x1="50" y1="78" x2="50" y2="95" stroke="#2d5a27" stroke-width="3" stroke-linecap="round"/>
</svg>
