<svg xmlns="http://www.w3.org/2000/svg" viewBox="0 0 2000 2000">
  <g transform="translate(0.000000,2000.000000) scale(0.100000,-0.100000)" fill="#D4AF37" stroke="none">
    <path d="M0 10000 l0 -10000 10000 0 10000 0 0 10000 0 10000 -10000 0 -10000 0 0 -10000z m10118 9631 c9 -5 40 -19 67 -32 65 -30 162 -127 207 -209 19 -36 45 -83 58 -105 50 -88 110 -198 110 -201 0 -2 18 -33 40 -69 22 -36 40 -67 40 -69 0 -2 17 -35 39 -73 21 -37 53 -95 71 -128 18 -33 42 -76 53 -95 51 -91 173 -311 200 -360 16 -30 40 -73 52 -95 86 -151 156 -278 198 -355 22 -41 43 -79 47 -85 4 -5 21 -36 39 -67 73 -136 95 -175 118 -210 12 -21 23 -40 23 -42 0 -2 17 -35 39 -73 21 -37 53 -95 71 -128 43 -78 63 -113 116 -207 24 -43 44 -80 44 -83 0 -3 11 -22 23 -43 26 -40 41 -67 162 -287 65 -118 90 -164 112 -197 12 -21 23 -39 23 -42 0 -3 43 -81 113 -207 14 -25 37 -66 50 -90 13 -24 57 -102 97 -174 40 -71 84 -150 97 -174 31 -56 61 -111 118 -211 25 -43 45 -82 45 -85 0 -3 11 -22 23 -43 23 -36 39 -65 107 -187 18 -33 36 -64 40 -70 21 -27 120 -239 143 -305 101 -294 101 -618 2 -914 -26 -76 -105 -244 -150 -316 -12 -19 -43 -75 -69 -125 -27 -49 -52 -94 -56 -100 -4 -5 -25 -41 -46 -80 -20 -38 -46 -86 -57 -105 -11 -19 -52 -93 -92 -165 -40 -71 -81 -146 -92 -165 -104 -185 -163 -292 -163 -296 0 -2 -18 -33 -40 -69 -22 -36 -40 -67 -40 -69 0 -4 -120 -222 -161 -291 -10 -16 -32 -57 -50 -90 -17 -33 -51 -95 -76 -138 -24 -42 -55 -99 -70 -125 -14 -26 -37 -67 -51 -92 -14 -25 -69 -124 -122 -220 -54 -96 -110 -197 -125 -225 -15 -27 -31 -54 -35 -60 -4 -5 -24 -41 -44 -80 -20 -38 -41 -77 -47 -85 -5 -8 -38 -67 -72 -130 -110 -199 -130 -234 -148 -265 -20 -34 -44 -77 -101 -185 -22 -41 -44 -79 -48 -85 -9 -13 -69 -120 -89 -160 -8 -16 -17 -32 -20 -35 -3 -3 -18 -27 -32 -55 -14 -27 -71 -131 -126 -230 -101 -182 -112 -200 -188 -335 -23 -41 -57 -102 -75 -135 -44 -80 -53 -92 -105 -146 -108 -111 -291 -156 -440 -108 -131 42 -215 117 -295 264 -18 33 -44 77 -57 97 -12 21 -23 40 -23 43 0 3 -20 40 -44 83 -63 112 -81 144 -122 219 -21 37 -48 85 -61 105 -13 21 -23 40 -23 42 0 3 -24 47 -53 98 -30 51 -73 129 -96 173 -24 44 -47 85 -51 90 -8 10 -45 77 -99 180 -18 33 -40 74 -50 90 -10 17 -32 57 -51 90 -18 33 -40 74 -50 90 -9 17 -33 59 -52 95 -20 36 -45 81 -56 100 -11 19 -37 67 -58 105 -20 39 -40 75 -44 80 -4 6 -22 37 -40 70 -18 33 -41 74 -50 90 -102 184 -138 248 -165 295 -18 30 -48 84 -67 120 -19 36 -66 121 -105 190 -38 69 -73 132 -76 140 -4 8 -15 29 -25 45 -10 17 -31 51 -45 77 -15 26 -47 84 -72 128 -25 43 -45 82 -45 84 0 3 -18 35 -40 71 -22 36 -40 67 -40 69 0 3 -50 94 -107 196 -11 19 -32 56 -46 82 -15 26 -47 84 -72 128 -25 43 -45 82 -45 85 0 3 -11 22 -23 43 -25 38 -58 96 -109 192 -17 30 -48 85 -69 123 -21 38 -39 71 -39 73 0 2 -12 23 -27 47 -38 59 -156 293 -176 347 -34 93 -66 239 -78 358 -25 255 25 511 148 757 30 61 58 115 63 120 4 6 20 33 35 60 23 42 100 180 250 450 15 28 39 70 53 95 67 122 172 309 189 340 104 185 163 292 163 296 0 2 18 33 40 69 22 36 40 67 40 69 0 3 50 94 107 196 31 55 70 124 148 265 40 72 82 148 95 170 12 22 39 69 58 105 19 36 44 81 55 100 11 19 52 94 92 165 40 72 83 148 95 170 53 94 110 198 110 201 0 2 18 33 40 69 22 36 40 67 40 69 0 2 17 35 39 73 21 37 53 95 71 128 73 131 84 151 107 187 12 21 23 39 23 42 0 3 43 81 113 207 14 25 37 67 51 92 64 117 78 142 108 195 17 31 42 74 55 94 12 21 23 39 23 42 0 3 54 102 107 196 11 19 35 62 54 95 47 84 93 147 131 179 39 32 121 76 143 76 8 0 15 5 15 10 0 13 203 14 228 1z m-3588 -11631 c171 -13 257 -32 400 -88 169 -67 327 -202 387 -332 92 -198 95 -374 13 -610 -69 -196 -264 -459 -438 -591 -31 -24 -60 -47 -63 -52 -7 -9 -140 -97 -147 -97 -3 0 -13 -7 -22 -15 -9 -8 -66 -40 -126 -71 -108 -55 -169 -94 -190 -123 -12 -15 -7 -51 6 -51 11 0 90 28 125 44 121 56 159 71 243 92 52 13 121 24 152 24 114 0 246 -60 322 -145 82 -93 153 -260 173 -410 4 -27 11 -66 15 -85 5 -19 11 -134 15 -254 10 -314 25 -380 105 -449 39 -33 118 -62 190 -69 19 -2 25 -9 25 -28 l0 -25 -525 -3 c-289 -1 -530 0 -537 2 -21 8 -2 46 26 52 63 12 148 39 171 53 104 64 130 180 130 573 0 299 -15 410 -69 508 -36 64 -121 110 -205 110 -61 0 -207 -44 -281 -85 -70 -38 -162 -41 -199 -6 -40 38 -51 83 -32 138 29 86 79 132 216 203 208 108 363 269 462 480 34 73 42 93 67 172 36 111 53 386 31 488 -43 197 -113 327 -229 424 -58 48 -175 102 -252 115 -36 6 -145 11 -242 11 l-177 0 0 -1416 c0 -1256 2 -1427 16 -1513 21 -122 51 -181 107 -209 53 -25 112 -42 154 -42 33 0 61 -29 48 -50 -4 -6 -201 -10 -536 -10 -464 0 -530 2 -535 15 -9 23 15 45 49 45 17 0 58 8 90 18 118 34 157 115 176 362 17 215 15 2460 -2 2575 -23 155 -63 213 -170 249 -26 9 -64 16 -83 16 -19 0 -44 5 -55 10 -24 13 -25 47 -1 53 33 9 1079 6 1202 -3z m5778 -806 c156 -44 220 -77 308 -156 98 -90 160 -207 184 -347 5 -29 14 -439 20 -910 12 -942 12 -941 73 -1002 61 -62 146 -17 175 92 6 27 13 34 33 34 34 0 36 -40 5 -108 -56 -124 -155 -187 -291 -187 -63 0 -86 5 -138 29 -98 46 -184 152 -203 250 -4 17 -9 31 -13 31 -3 0 -25 -23 -49 -50 -139 -161 -387 -252 -603 -221 -196 29 -358 125 -451 269 -73 113 -97 200 -98 357 0 120 12 176 57 263 77 148 231 260 553 401 301 132 445 233 515 363 82 150 74 419 -18 607 -81 166 -233 234 -372 166 -132 -65 -205 -198 -221 -407 -5 -63 -11 -85 -35 -122 -69 -104 -224 -101 -301 7 -20 28 -23 43 -22 132 0 92 3 105 32 164 113 224 363 358 675 360 90 1 146 -4 185 -15z m-3575 -50 c103 -23 151 -40 239 -86 102 -53 228 -164 300 -264 54 -75 137 -225 150 -269 4 -11 15 -43 25 -70 20 -50 40 -134 68 -275 10 -51 15 -138 15 -276 0 -197 -2 -212 -41 -399 -20 -93 -69 -233 -115 -324 -173 -346 -466 -541 -812 -541 -416 0 -746 261 -897 709 -25 72 -31 94 -53 201 -25 117 -32 190 -32 345 0 180 6 231 50 430 27 122 105 303 184 425 101 156 277 301 436 360 133 48 349 64 483 34z m1870 1 c273 -59 463 -177 534 -331 30 -66 40 -157 23 -208 -24 -74 -103 -126 -190 -126 -120 0 -200 82 -200 204 0 97 -50 214 -119 278 -75 71 -211 109 -316 89 -87 -16 -124 -33 -181 -84 -84 -76 -134 -198 -134 -328 0 -174 101 -296 490 -592 102 -77 187 -143 190 -146 3 -3 28 -24 55 -46 91 -72 241 -229 291 -305 152 -230 165 -483 34 -656 -101 -134 -257 -215 -490 -255 -80 -14 -365 -7 -435 11 -156 40 -271 91 -351 156 -82 67 -101 90 -136 164 -58 122 -46 248 30 326 43 44 69 54 141 54 48 0 65 -5 98 -29 43 -31 76 -79 87 -123 3 -14 10 -67 15 -117 12 -108 42 -174 109 -238 152 -144 393 -146 549 -5 119 108 158 321 87 473 -61 128 -167 232 -494 485 -337 260 -492 427 -574 618 -28 68 -30 78 -30 216 -1 142 0 146 30 210 48 102 149 196 265 247 68 31 78 34 159 53 100 24 360 27 463 5z m3520 0 c227 -49 401 -142 493 -262 65 -86 92 -211 60 -286 -17 -41 -61 -85 -104 -103 -70 -29 -168 -13 -220 36 -42 40 -54 70 -63 156 -14 139 -42 202 -123 276 -136 124 -354 127 -489 7 -88 -78 -136 -193 -137 -324 0 -172 115 -319 435 -556 55 -41 102 -76 105 -79 3 -3 34 -28 70 -55 368 -277 540 -522 540 -770 0 -229 -132 -401 -384 -497 -57 -22 -100 -33 -196 -49 -81 -14 -367 -7 -435 11 -294 76 -460 199 -510 378 -32 114 -3 231 73 289 30 22 49 28 104 31 56 4 73 1 103 -18 72 -45 101 -105 111 -234 11 -145 85 -260 206 -319 200 -99 440 -23 531 166 74 152 63 303 -30 439 -74 108 -164 190 -449 411 -338 261 -474 401 -552 567 -53 113 -62 155 -62 277 0 105 3 120 31 189 54 129 162 223 334 289 117 45 413 61 558 30z m-2183 -3184 c6 -12 10 -123 10 -290 0 -149 1 -272 3 -273 1 -1 157 -5 347 -8 327 -5 345 -6 348 -24 2 -10 -2 -22 -10 -27 -7 -5 -165 -9 -350 -9 l-338 0 0 -1293 c0 -874 3 -1312 11 -1351 19 -105 66 -166 126 -166 57 0 85 38 119 158 4 16 16 15 38 -1 18 -13 17 -15 0 -71 -23 -71 -74 -132 -145 -171 -50 -27 -62 -29 -154 -29 -81 0 -109 4 -148 22 -60 27 -138 100 -165 154 -54 108 -52 63 -52 1457 l0 1291 -309 0 c-170 0 -316 3 -325 6 -9 3 -16 16 -16 29 0 22 4 23 98 29 175 11 345 27 442 42 118 18 242 44 255 54 6 4 22 10 36 13 14 4 38 18 53 32 22 20 25 28 16 44 -10 21 -30 31 -133 72 -70 28 -97 52 -97 85 0 45 30 80 103 120 39 22 83 46 98 54 15 8 43 23 63 34 20 10 39 22 42 27 9 15 23 10 34 -10z m-8665 -186 c126 -18 159 -28 254 -77 185 -94 293 -251 294 -428 2 -133 -64 -210 -180 -210 -58 0 -107 24 -146 72 -25 31 -30 49 -38 129 -12 125 -21 164 -53 229 -36 74 -91 133 -153 164 -147 74 -275 -17 -335 -239 -17 -67 -18 -380 0 -455 80 -341 199 -576 495 -980 39 -52 73 -97 76 -100 7 -6 172 -223 210 -276 13 -19 27 -34 31 -34 7 0 21 104 36 260 11 120 56 321 95 420 32 84 101 186 148 219 68 49 110 59 266 66 149 7 225 0 232 -22 2 -6 -20 -25 -49 -43 -164 -100 -305 -347 -403 -710 -9 -36 -21 -76 -25 -90 -5 -14 -23 -86 -40 -160 -18 -74 -38 -154 -45 -177 -13 -40 -12 -43 27 -110 22 -37 66 -117 98 -178 177 -339 289 -489 403 -543 39 -18 48 -27 45 -45 l-3 -22 -330 0 -330 0 0 25 c0 21 7 27 40 35 60 15 128 52 149 82 51 70 24 236 -72 434 -45 93 -76 140 -86 128 -2 -2 -18 -47 -36 -99 -45 -134 -130 -303 -193 -385 -102 -134 -216 -206 -403 -254 -61 -16 -356 -14 -434 3 -74 16 -177 53 -235 86 -46 25 -175 127 -175 138 0 4 -16 25 -35 46 -41 48 -98 160 -122 241 -22 76 -30 363 -13 445 52 241 175 464 354 642 69 69 199 170 261 204 11 6 39 21 62 33 26 14 40 27 36 34 -4 7 -37 48 -74 92 -231 278 -349 555 -349 823 0 321 205 552 525 591 98 12 118 11 220 -4z m2603 -27 c2 -20 -2 -28 -20 -32 -83 -23 -107 -32 -136 -53 -44 -33 -62 -72 -62 -139 0 -76 37 -207 180 -644 21 -63 64 -196 95 -295 32 -99 74 -232 95 -295 21 -63 56 -176 80 -250 23 -74 48 -150 56 -168 8 -18 14 -39 14 -47 0 -9 4 -23 9 -33 6 -9 24 -64 41 -122 29 -97 51 -164 69 -215 5 -11 15 -42 23 -70 35 -115 131 -411 139 -430 4 -11 11 -35 14 -53 10 -48 28 -27 55 61 12 39 26 83 30 97 5 14 18 59 30 100 35 122 42 143 55 180 7 19 21 62 30 95 19 67 62 207 75 245 8 23 21 67 101 333 17 56 34 111 38 122 5 11 16 47 26 80 9 33 21 71 25 85 5 14 23 72 40 130 17 58 37 123 45 145 7 22 25 81 40 130 14 50 44 146 66 215 21 69 46 148 54 175 8 28 32 104 53 170 67 207 72 230 72 298 0 59 -3 69 -27 91 -25 24 -81 46 -150 61 -38 8 -51 34 -27 52 14 10 90 13 318 13 166 0 311 -3 324 -6 13 -4 22 -14 22 -25 0 -20 -8 -24 -100 -54 -136 -45 -201 -121 -285 -333 -20 -51 -47 -127 -60 -170 -13 -42 -38 -122 -55 -177 -17 -55 -35 -113 -40 -130 -5 -16 -27 -91 -50 -165 -23 -74 -48 -155 -55 -180 -8 -25 -32 -103 -54 -175 -115 -375 -154 -503 -161 -533 -5 -19 -13 -46 -18 -60 -11 -28 -47 -143 -77 -247 -10 -33 -28 -91 -40 -130 -13 -38 -31 -97 -40 -130 -9 -33 -23 -78 -30 -100 -7 -22 -20 -67 -30 -100 -9 -33 -20 -69 -25 -80 -5 -11 -16 -47 -25 -80 -10 -33 -23 -78 -30 -100 -7 -22 -21 -67 -30 -100 -31 -109 -66 -220 -79 -245 -12 -25 -12 -25 -156 -25 l-145 0 -31 95 c-18 52 -58 176 -89 275 -31 99 -63 198 -70 220 -8 22 -33 101 -56 175 -23 74 -52 167 -64 205 -13 39 -49 151 -80 250 -32 99 -75 234 -96 300 -21 66 -45 143 -54 170 -8 28 -32 104 -54 170 -21 66 -57 179 -80 250 -263 831 -258 817 -317 940 -58 121 -153 203 -257 224 -39 8 -56 33 -38 55 12 14 65 16 495 14 l481 -3 3 -27z m2592 -808 c145 -32 223 -65 325 -137 149 -105 220 -236 219 -403 -2 -230 -124 -376 -453 -540 -77 -39 -142 -70 -146 -70 -7 0 -282 -135 -310 -153 -124 -76 -224 -171 -268 -254 -46 -86 -61 -158 -46 -223 31 -136 115 -294 204 -383 60 -61 161 -125 240 -154 63 -23 285 -25 355 -4 214 64 349 192 408 386 15 49 22 59 38 57 10 -2 23 -8 28 -12 11 -11 -19 -168 -39 -207 -8 -16 -15 -32 -15 -36 0 -13 -70 -119 -99 -150 -73 -80 -186 -151 -303 -191 -121 -42 -261 -57 -386 -40 -367 47 -637 269 -792 649 -85 210 -123 512 -101 820 6 90 16 176 21 190 6 15 10 36 10 49 0 35 57 202 102 296 72 153 191 290 330 383 191 126 457 176 678 127z m7023 5 c197 -43 307 -97 417 -205 97 -96 137 -174 146 -287 13 -162 -28 -273 -141 -388 -91 -92 -239 -180 -480 -285 -113 -49 -257 -124 -330 -172 -214 -141 -313 -328 -259 -494 85 -261 238 -429 454 -495 70 -22 292 -19 355 4 217 79 361 226 389 398 7 40 37 57 57 33 23 -28 -12 -176 -66 -284 -43 -87 -172 -207 -275 -258 -109 -54 -162 -69 -287 -87 -88 -12 -118 -12 -209 0 -378 50 -654 287 -803 690 -31 82 -55 185 -80 336 -14 85 -14 461 -1 548 44 277 107 437 240 615 75 101 200 201 320 257 168 79 389 109 553 74z m-1549 -40 c243 -80 379 -243 380 -453 0 -84 -1 -90 -33 -134 -60 -83 -163 -110 -255 -67 -66 31 -97 84 -107 184 -14 141 -42 207 -113 273 -72 66 -124 85 -236 86 -92 1 -111 -3 -200 -42 -31 -14 -75 -44 -133 -92 -48 -40 -129 -176 -160 -270 -41 -124 -42 -142 -42 -845 0 -704 1 -719 42 -869 29 -102 106 -160 240 -182 42 -6 57 -22 47 -49 -5 -13 -72 -15 -514 -15 -332 0 -511 4 -515 10 -15 24 6 48 47 54 83 13 137 37 173 77 73 81 91 171 105 519 13 318 4 1524 -12 1585 -20 77 -102 129 -235 150 -24 4 -53 14 -64 24 -20 16 -20 18 -4 34 15 16 47 17 348 15 l332 -3 6 -155 c3 -85 7 -157 7 -159 1 -3 15 16 32 42 87 138 238 246 405 291 92 24 101 25 245 21 113 -3 148 -7 214 -30z m3299 6 c241 -54 425 -169 499 -313 24 -46 28 -65 28 -143 0 -87 -1 -92 -32 -129 -79 -96 -225 -100 -311 -8 -31 32 -41 68 -53 177 -9 98 -51 182 -119 243 -75 66 -136 87 -255 87 -84 0 -102 -4 -152 -28 -113 -55 -188 -161 -209 -298 -15 -100 -5 -180 34 -254 33 -62 183 -223 267 -286 25 -18 47 -36 50 -40 3 -3 57 -45 120 -92 212 -159 235 -177 340 -276 171 -160 263 -288 305 -428 23 -75 20 -274 -5 -342 -55 -152 -186 -263 -390 -331 -125 -41 -153 -45 -340 -45 -187 1 -235 7 -370 51 -149 49 -301 155 -356 250 -75 128 -68 280 16 364 126 126 330 30 330 -157 0 -208 117 -354 321 -399 69 -15 81 -15 152 0 142 29 239 112 292 251 15 38 20 76 20 155 0 100 -2 108 -35 175 -39 78 -190 239 -317 338 -77 60 -146 115 -308 242 -154 122 -301 274 -368 383 -80 129 -108 220 -109 347 -1 142 33 234 120 328 99 106 282 186 457 201 94 7 295 -5 378 -23z m-7519 -17 c14 -5 16 -29 16 -159 0 -85 4 -156 9 -159 5 -3 21 12 35 33 75 107 220 210 366 257 78 26 302 26 380 0 156 -51 288 -144 385 -273 30 -40 55 -75 55 -78 0 -3 10 -22 23 -43 39 -64 86 -189 116 -312 27 -109 34 -236 41 -715 6 -383 11 -536 23 -615 36 -236 83 -300 247 -334 49 -10 55 -14 55 -36 l0 -25 -535 0 -535 0 0 25 c0 22 6 26 55 36 111 21 185 67 216 135 41 88 51 125 70 259 17 122 36 821 28 1030 -10 256 -62 466 -151 608 -125 199 -301 266 -503 190 -119 -44 -241 -167 -332 -333 l-43 -80 -3 -563 c-4 -888 14 -1069 117 -1172 46 -45 85 -62 169 -76 42 -6 56 -22 46 -49 -5 -13 -72 -15 -514 -15 -332 0 -511 4 -515 10 -15 24 6 48 48 54 106 16 180 63 214 138 12 24 29 84 39 133 18 84 19 150 19 1000 l0 910 -28 43 c-32 50 -105 88 -196 103 -46 7 -101 31 -101 44 0 2 7 11 16 19 13 14 58 16 334 16 175 0 325 -3 334 -6z"/>
  </g>
</svg>
